# xmcd
#
# Track frame offsets:
# 150
# 27530
# 52527
# 73842
# 91277
# 116737
# 137750
# 157282
# 175560
# 196820
# 218222
# 234670
# 253560
# 271642
#
# Disc length: 3861 seconds
#
#
# Revision: 0
# Processed by: cddbd v1.5.2PL0 Copyright (c) Steve Scherf et al.
# Submitted via: FreeRIP 2.96 
#
DISCID=c10f130e
DTITLE=Love Line vol.5
DYEAR=1900
DGENRE=Romanticas Nacional
TTITLE0=Dangerous Loverboy
TTITLE1=Separete Ways
TTITLE2=As One
TTITLE3=Toby
TTITLE4=Let´s Fall In Love Again
TTITLE5=Leave The Lights On
TTITLE6=My Heart Surrender
TTITLE7=Betcha By Golly Wow
TTITLE8=Reunited
TTITLE9=Crasy In Love
TTITLE10=Heart Don´t Fall Me Now
TTITLE11=Forgive Me
TTITLE12=Ohh Baby Baby
TTITLE13=Don´t Ask My Neighbouer
EXTD=
EXTT0=
EXTT1=
EXTT2=
EXTT3=
EXTT4=
EXTT5=
EXTT6=
EXTT7=
EXTT8=
EXTT9=
EXTT10=
EXTT11=
EXTT12=
EXTT13=
PLAYORDER=
